<svg xmlns="http://www.w3.org/2000/svg" width="24" height="22" viewBox="0 0 24 22">
  <path id="iconmonstr-paper-plane-3" d="M24,1,19.5,17.5l-6.1-5.43,5.852-6.175-7.844,5.421L6,10,24,1ZM13,13.5V19l2.193-3.323L13,13.5ZM8.362,19.752A10.656,10.656,0,0,0,11,17.582v2.053a12.065,12.065,0,0,1-2.175,1.527Zm-4.883,3.06A30.49,30.49,0,0,1,0,23V21.545a29.127,29.127,0,0,0,3.229-.169Zm4.184-1.086-.055.023a14.75,14.75,0,0,1-2.865.859l-.25-1.438a13.413,13.413,0,0,0,2.714-.833Z" transform="translate(0 -1)" fill="#fff"/>
</svg>
